<svg width="24" height="24" viewBox="0 0 24 24" fill="none" xmlns="http://www.w3.org/2000/svg">
<path d="M21.752 6H19.502V5.25C19.502 4.85218 19.3439 4.47064 19.0626 4.18934C18.7813 3.90804 18.3998 3.75 18.002 3.75H6.00195C5.60413 3.75 5.2226 3.90804 4.94129 4.18934C4.65999 4.47064 4.50195 4.85218 4.50195 5.25V6H2.25195C1.85413 6 1.4726 6.15804 1.19129 6.43934C0.909988 6.72064 0.751953 7.10218 0.751953 7.5V9C0.751953 9.99456 1.14704 10.9484 1.8503 11.6517C2.19852 11.9999 2.61192 12.2761 3.06689 12.4645C3.52186 12.653 4.0095 12.75 4.50195 12.75H4.84414C5.28593 14.1501 6.1283 15.39 7.26711 16.3166C8.40593 17.2431 9.79128 17.8157 11.252 17.9634V20.25H9.00195C8.80304 20.25 8.61228 20.329 8.47162 20.4697C8.33097 20.6103 8.25195 20.8011 8.25195 21C8.25195 21.1989 8.33097 21.3897 8.47162 21.5303C8.61228 21.671 8.80304 21.75 9.00195 21.75H15.002C15.2009 21.75 15.3916 21.671 15.5323 21.5303C15.6729 21.3897 15.752 21.1989 15.752 21C15.752 20.8011 15.6729 20.6103 15.5323 20.4697C15.3916 20.329 15.2009 20.25 15.002 20.25H12.752V17.9606C15.7463 17.6578 18.2307 15.5569 19.1345 12.75H19.502C20.4965 12.75 21.4503 12.3549 22.1536 11.6517C22.8569 10.9484 23.252 9.99456 23.252 9V7.5C23.252 7.10218 23.0939 6.72064 22.8126 6.43934C22.5313 6.15804 22.1498 6 21.752 6ZM4.50195 11.25C3.90522 11.25 3.33292 11.0129 2.91096 10.591C2.48901 10.169 2.25195 9.59674 2.25195 9V7.5H4.50195V10.5C4.50195 10.75 4.51414 11 4.53852 11.25H4.50195ZM21.752 9C21.752 9.59674 21.5149 10.169 21.0929 10.591C20.671 11.0129 20.0987 11.25 19.502 11.25H19.4551C19.4859 10.9729 19.5015 10.6944 19.502 10.4156V7.5H21.752V9Z" fill="#E6E6E7"/>
</svg>
